<svg width="42" height="42" viewBox="0 0 42 42" fill="none" xmlns="http://www.w3.org/2000/svg">
<path fill-rule="evenodd" clip-rule="evenodd" d="M21 42C9.40202 42 0 32.598 0 21C0 9.40202 9.40202 0 21 0C32.598 0 42 9.40202 42 21C42 26.5695 39.7875 31.911 35.8492 35.8492C31.911 39.7875 26.5695 42 21 42ZM21 3.81818C11.5107 3.81818 3.81818 11.5107 3.81818 21C3.81818 30.4893 11.5107 38.1818 21 38.1818C30.4893 38.1818 38.1818 30.4893 38.1818 21C38.1818 11.5107 30.4893 3.81818 21 3.81818ZM21 28.6364C19.9456 28.6364 19.0909 29.4911 19.0909 30.5455C19.0909 31.5998 19.9456 32.4545 21 32.4545C22.0544 32.4545 22.9091 31.5998 22.9091 30.5455C22.9091 29.4911 22.0544 28.6364 21 28.6364ZM22.9091 24.8182V11.4545C22.9091 10.4002 22.0544 9.54545 21 9.54545C19.9456 9.54545 19.0909 10.4002 19.0909 11.4545V24.8182C19.0909 25.8725 19.9456 26.7273 21 26.7273C22.0544 26.7273 22.9091 25.8725 22.9091 24.8182Z" fill="#F0AA00"/>
</svg>
